<svg width="46" height="46" viewBox="0 0 46 46" fill="none" xmlns="http://www.w3.org/2000/svg">
<path d="M23 44.9999C33.9352 44.9999 42.8 36.1351 42.8 25.1999C42.8 14.2647 33.9352 5.3999 23 5.3999C12.0648 5.3999 3.20001 14.2647 3.20001 25.1999C3.20001 36.1351 12.0648 44.9999 23 44.9999Z" stroke="#CD5154" stroke-width="2" stroke-linecap="round" stroke-linejoin="round"/>
<path d="M23 5.4V1M30.7 17.5L23 25.2L30.7 17.5ZM38.4 38.4L40.6 45L38.4 38.4ZM7.6 38.4L5.4 45L7.6 38.4ZM1 7.6L7.6 1L1 7.6ZM38.4 1L45 7.6L38.4 1Z" stroke="#CD5154" stroke-width="2" stroke-linecap="round" stroke-linejoin="round"/>
</svg>
