<svg width="33" height="46" viewBox="0 0 33 46" fill="none" xmlns="http://www.w3.org/2000/svg">
<path d="M7.6 29.6H25.2M12 45H20.8H12ZM1 16.4C1 12.3157 2.6225 8.39862 5.51056 5.51056C8.39862 2.6225 12.3157 1 16.4 1C20.4843 1 24.4014 2.6225 27.2894 5.51056C30.1775 8.39862 31.8 12.3157 31.8 16.4C31.8015 18.8796 31.2018 21.3225 30.0523 23.5195C28.9028 25.7166 27.2378 27.6022 25.2 29.0148L24.0076 34.66C23.8497 35.7005 23.3241 36.65 22.5261 37.3362C21.7282 38.0224 20.7106 38.3998 19.6582 38.4H13.1418C12.0894 38.3998 11.0719 38.0224 10.2739 37.3362C9.47587 36.65 8.95027 35.7005 8.7924 34.66L7.6 29.039C5.5615 27.6214 3.89646 25.7314 2.74714 23.5304C1.59781 21.3294 0.998364 18.883 1 16.4V16.4Z" stroke="#AD65C0" stroke-width="2" stroke-linecap="round" stroke-linejoin="round"/>
</svg>
