<svg width="65" height="46" viewBox="0 0 65 46" fill="none" xmlns="http://www.w3.org/2000/svg">
<path d="M10.498 20.2511C7.52882 20.9983 4.93461 22.804 3.20283 25.3289C1.47106 27.8539 0.720902 30.9244 1.09331 33.9634C1.46573 37.0025 2.93507 39.8009 5.22528 41.8331C7.5155 43.8652 10.4689 44.991 13.5307 44.9991H48.0643C50.2809 44.9976 52.472 44.5267 54.4934 43.6174C56.5148 42.708 58.3207 41.3809 59.7923 39.7233C61.2639 38.0657 62.3677 36.1152 63.0311 34.0003C63.6945 31.8854 63.9025 29.6539 63.6414 27.4528C63.3802 25.2517 62.6559 23.1308 61.516 21.2298C60.3762 19.3288 58.8466 17.6908 57.0281 16.4235C55.2095 15.1562 53.1432 14.2885 50.9651 13.8774C48.787 13.4662 46.5466 13.5211 44.3912 14.0382L40.2158 15.1747" stroke="#CD5154" stroke-width="2" stroke-linecap="round" stroke-linejoin="round"/>
<path d="M44.3911 14.0391C43.3181 9.7901 40.6696 6.1081 36.9825 3.73946C33.2954 1.37082 28.8456 0.492775 24.5351 1.28332C20.2247 2.07387 16.376 4.47385 13.7695 7.99676C11.1629 11.5197 9.99336 15.9019 10.498 20.2551C10.498 20.2551 10.9783 23.0241 11.961 24.5938" stroke="#CD5154" stroke-width="2" stroke-linecap="round" stroke-linejoin="round"/>
</svg>
