<svg width="48" height="46" viewBox="0 0 48 46" fill="none" xmlns="http://www.w3.org/2000/svg">
<path d="M8.00057 15.1898C5.81209 15.7405 3.90002 17.0714 2.62361 18.9324C1.34719 20.7935 0.79429 23.0566 1.06878 25.2965C1.34327 27.5365 2.42625 29.5991 4.11426 31.0969C5.80228 32.5946 7.97913 33.4245 10.2358 33.4304H12.5497M24.1193 45V24.1747V45ZM24.1193 45L18.3345 40.3722L24.1193 45ZM24.1193 45L29.9041 40.3722L24.1193 45Z" stroke="white" stroke-linecap="round" stroke-linejoin="round"/>
<path d="M32.9818 10.6105C32.1909 7.47878 30.2388 4.76494 27.5212 3.01913C24.8036 1.27331 21.5239 0.626148 18.3468 1.20882C15.1698 1.7915 12.3331 3.56042 10.412 6.15699C8.49076 8.75357 7.62877 11.9835 8.00071 15.1921C8.00071 15.1921 8.35474 17.2329 9.079 18.3899" stroke="white" stroke-linecap="round" stroke-linejoin="round"/>
<path d="M35.6891 33.4304C37.3228 33.4293 38.9378 33.0822 40.4277 32.412C41.9176 31.7417 43.2487 30.7635 44.3333 29.5418C45.4179 28.3201 46.2315 26.8825 46.7204 25.3237C47.2094 23.7648 47.3627 22.1201 47.1703 20.4978C46.9778 18.8754 46.4439 17.3123 45.6038 15.9111C44.7636 14.51 43.6363 13.3026 42.2959 12.3686C40.9555 11.4346 39.4325 10.795 37.8272 10.492C36.2218 10.1889 34.5704 10.2293 32.9818 10.6105L29.9043 11.4482" stroke="white" stroke-linecap="round" stroke-linejoin="round"/>
</svg>
