<svg width="144" height="40" viewBox="0 0 144 40" fill="none" xmlns="http://www.w3.org/2000/svg">
<path d="M48.801 15.0254C49.3895 14.3833 50.1083 13.8745 50.9095 13.5329C51.7106 13.1912 52.5754 13.0248 53.4461 13.0445C55.4197 13.0445 56.9521 13.8479 57.3406 14.9918V13.2844H61.2087V24.1884C61.2087 25.8671 61.0792 27.2268 60.7938 28.186C60.5085 29.1453 59.9113 30.0038 58.9257 30.704C57.6523 31.6129 56.048 32.0805 54.0696 32.0805C51.6308 32.0805 49.6571 31.6129 48.1248 30.704V27.2268C49.3981 28.2915 51.1368 28.8359 53.3166 28.8359C54.6164 28.8359 55.602 28.6273 56.3022 28.2124C57.0552 27.6944 57.4461 26.7592 57.4461 25.4091V24.8647C56.8993 25.7975 55.343 26.4474 53.4461 26.4474C52.5829 26.4705 51.7242 26.3141 50.9246 25.988C50.125 25.6618 49.4019 25.1732 48.801 24.5529C48.1965 23.9261 47.7222 23.1856 47.4057 22.3743C47.0891 21.563 46.9366 20.697 46.9569 19.8263C46.9156 18.0456 47.5783 16.3205 48.801 15.0254ZM51.7866 22.1117C52.0979 22.4175 52.4673 22.6578 52.873 22.8184C53.2787 22.979 53.7125 23.0567 54.1487 23.0469C54.5931 23.0587 55.0354 22.9821 55.45 22.8215C55.8645 22.661 56.2431 22.4197 56.5636 22.1117C56.8875 21.8266 57.1458 21.4747 57.3205 21.0801C57.4952 20.6855 57.5822 20.2578 57.5756 19.8263C57.5824 19.3913 57.4955 18.96 57.3209 18.5615C57.1463 18.1631 56.888 17.8068 56.5636 17.517C56.248 17.2006 55.8708 16.9523 55.4555 16.7873C55.0402 16.6223 54.5954 16.5442 54.1487 16.5577C53.7102 16.5463 53.274 16.6256 52.8675 16.7907C52.461 16.9557 52.0931 17.203 51.7866 17.517C51.4738 17.8131 51.2267 18.1718 51.0614 18.5696C50.8961 18.9675 50.8164 19.3956 50.8274 19.8263C50.8166 20.2534 50.8966 20.6779 51.0619 21.0719C51.2273 21.4658 51.4743 21.8202 51.7866 22.1117Z" fill="white"/>
<path d="M63.729 26.3693V13.2854H67.5971V15.0767C68.1942 13.753 69.5971 13 71.3861 13C71.7255 13.0059 72.0642 13.0323 72.4005 13.0791V16.7122C71.9724 16.6273 71.5371 16.584 71.1007 16.5827C68.8945 16.5827 67.5971 17.8297 67.5971 19.9832V26.3693H63.729Z" fill="white"/>
<path d="M74.2183 13.2852H78.1391V20.7624C78.1391 22.4242 79.0984 23.1772 80.5252 23.1772C81.9521 23.1772 82.9233 22.4242 82.9233 20.7624V13.2852H86.8442V21.1005C86.8442 22.9182 86.247 24.3187 85.0264 25.2804C83.8058 26.242 82.3262 26.7336 80.5348 26.7336C78.7434 26.7336 77.2207 26.2348 76.0216 25.2756C74.8226 24.3163 74.2302 22.9135 74.2302 21.0957L74.2183 13.2852Z" fill="white"/>
<path d="M89.3021 26.3689V13.2849H93.1702V14.9204C93.7146 13.7789 95.1942 13.002 96.9856 13.002C100.18 13.002 101.998 15.0283 101.998 18.4288V26.3713H98.1295V18.894C98.1295 17.3617 97.2709 16.4264 95.7314 16.4264C95.3884 16.4148 95.0468 16.4743 94.7279 16.6011C94.409 16.7279 94.1198 16.9192 93.8783 17.1631C93.6369 17.407 93.4486 17.6981 93.325 18.0183C93.2015 18.3385 93.1456 18.6807 93.1606 19.0235V26.3689H89.3021Z" fill="white"/>
<path d="M105.321 26.3689V16.791H103.583V13.285H105.321V8.27539H109.086V13.285H111.964V16.791H109.086V26.3689H105.321Z" fill="white"/>
<path d="M115.576 7.78131C116.009 7.78369 116.431 7.91409 116.79 8.1561C117.149 8.39812 117.428 8.74093 117.593 9.14138C117.758 9.54183 117.8 9.98203 117.715 10.4065C117.63 10.8311 117.421 11.2209 117.115 11.5271C116.809 11.8332 116.419 12.042 115.995 12.127C115.57 12.2121 115.13 12.1696 114.729 12.005C114.329 11.8404 113.986 11.5611 113.744 11.2021C113.502 10.8431 113.372 10.4205 113.369 9.98755C113.367 9.6972 113.423 9.4093 113.533 9.14062C113.643 8.87194 113.805 8.62784 114.011 8.42253C114.216 8.21721 114.46 8.05479 114.729 7.9447C114.997 7.83462 115.285 7.77908 115.576 7.78131ZM113.657 26.3688V13.2849H117.525V26.3688H113.657Z" fill="white"/>
<path d="M121.599 26.3697V16.7918H119.441V13.2858H121.599V12.9237C121.599 11.0268 122.12 9.67665 123.132 8.87329C123.885 8.22341 125.103 7.91406 126.729 7.91406C127.25 7.91906 127.77 7.96235 128.285 8.04356V11.2618C127.905 11.1606 127.511 11.1169 127.117 11.1323C125.87 11.1323 125.326 11.5735 125.326 12.6886V13.2858H127.947V16.7918H125.338V26.3697H121.599Z" fill="white"/>
<path d="M133.827 26.6041L128.35 13.2852H132.376L135.854 22.0094L139.384 13.2852H143.408L135.698 31.4075H131.724L133.827 26.6041Z" fill="white"/>
<path d="M20.0024 1.43836e-07C16.0467 -0.000474164 12.1796 1.1721 8.89035 3.36944C5.60105 5.56678 3.03723 8.69019 1.52311 12.3447C0.00898638 15.9991 -0.387422 20.0206 0.384011 23.9003C1.15544 27.7801 3.06007 31.344 5.85702 34.1413C8.65398 36.9386 12.2176 38.8436 16.0973 39.6155C19.977 40.3874 23.9985 39.9915 27.6531 38.4778C31.3078 36.9641 34.4315 34.4007 36.6292 31.1116C38.827 27.8226 40 23.9557 40 20C40 14.6961 37.8932 9.60937 34.143 5.85871C30.3928 2.10805 25.3063 0.000636105 20.0024 1.43836e-07ZM32.0863 20C32.0863 22.39 31.3776 24.7263 30.0498 26.7135C28.722 28.7007 26.8348 30.2495 24.6267 31.1641C22.4187 32.0787 19.989 32.318 17.6449 31.8517C15.3009 31.3855 13.1477 30.2346 11.4578 28.5446C9.76781 26.8547 8.61692 24.7015 8.15066 22.3575C7.6844 20.0134 7.9237 17.5837 8.83831 15.3757C9.75291 13.1676 11.3017 11.2804 13.2889 9.95258C15.2761 8.62478 17.6124 7.91607 20.0024 7.91607H25.1487C25.389 7.90726 25.6286 7.94699 25.8531 8.03287C26.0777 8.11875 26.2827 8.24902 26.4558 8.4159C26.6289 8.58278 26.7666 8.78284 26.8606 9.00413C26.9547 9.22542 27.0031 9.46339 27.0031 9.70384C27.0031 9.94428 26.9547 10.1823 26.8606 10.4035C26.7666 10.6248 26.6289 10.8249 26.4558 10.9918C26.2827 11.1587 26.0777 11.2889 25.8531 11.3748C25.6286 11.4607 25.389 11.5004 25.1487 11.4916H20.0024C18.3196 11.4916 16.6746 11.9906 15.2754 12.9255C13.8762 13.8604 12.7857 15.1893 12.1417 16.744C11.4977 18.2987 11.3292 20.0094 11.6575 21.6599C11.9858 23.3104 12.7961 24.8264 13.9861 26.0163C15.176 27.2063 16.692 28.0166 18.3425 28.3449C19.993 28.6732 21.7037 28.5047 23.2584 27.8607C24.8131 27.2167 26.142 26.1262 27.0769 24.727C28.0118 23.3278 28.5108 21.6828 28.5108 20V16.6427H20.0024C19.3384 16.6427 18.6893 16.8396 18.1372 17.2085C17.5851 17.5774 17.1548 18.1017 16.9007 18.7152C16.6465 19.3287 16.5801 20.0037 16.7096 20.655C16.8391 21.3062 17.1589 21.9044 17.6284 22.374C18.098 22.8435 18.6962 23.1633 19.3474 23.2928C19.9987 23.4223 20.6737 23.3559 21.2872 23.1017C21.9007 22.8476 22.425 22.4173 22.7939 21.8652C23.1628 21.3131 23.3597 20.664 23.3597 20V18.0815H26.9353V20C26.9357 21.3724 26.5291 22.7142 25.7669 23.8555C25.0046 24.9968 23.921 25.8864 22.6531 26.4117C21.3852 26.937 19.9899 27.0745 18.6438 26.8067C17.2978 26.5389 16.0614 25.8778 15.0911 24.9072C14.1208 23.9366 13.4602 22.7 13.1929 21.3538C12.9255 20.0076 13.0634 18.6124 13.5892 17.3447C14.115 16.077 15.0049 14.9936 16.1465 14.2318C17.2881 13.4699 18.63 13.0638 20.0024 13.0647H30.2974C30.5322 13.0644 30.7648 13.1104 30.9818 13.2001C31.1988 13.2897 31.3961 13.4212 31.5622 13.5872C31.7284 13.7531 31.8602 13.9502 31.9501 14.1671C32.04 14.384 32.0863 14.6165 32.0863 14.8513V20Z" fill="white"/>
</svg>
