<svg width="224" height="74" viewBox="0 0 224 74" fill="none" xmlns="http://www.w3.org/2000/svg">
<path d="M1 37C1 17.1177 17.1177 1 37 1H187C206.882 1 223 17.1177 223 37C223 56.8823 206.882 73 187 73H37C17.1178 73 1 56.8823 1 37Z" fill="white"/>
<path fill-rule="evenodd" clip-rule="evenodd" d="M64.9333 37.0002C64.9333 52.3537 52.4869 64.8002 37.1333 64.8002C21.7798 64.8002 9.33337 52.3537 9.33337 37.0002C9.33337 21.6467 21.7798 9.2002 37.1333 9.2002C52.4869 9.2002 64.9333 21.6467 64.9333 37.0002ZM37.1333 27.3602H51.4433C51.7697 27.3598 52.093 27.4237 52.3947 27.5483C52.6964 27.6729 52.9705 27.8557 53.2015 28.0864C53.4324 28.317 53.6156 28.5909 53.7407 28.8924C53.8657 29.1939 53.93 29.5171 53.93 29.8435V37.0002C53.93 40.3223 52.9449 43.5697 51.0993 46.3319C49.2536 49.0941 46.6303 51.247 43.5611 52.5183C40.492 53.7896 37.1147 54.1222 33.8565 53.4741C30.5982 52.826 27.6054 51.2263 25.2563 48.8772C22.9072 46.5282 21.3075 43.5353 20.6594 40.2771C20.0113 37.0188 20.3439 33.6416 21.6152 30.5724C22.8865 27.5032 25.0394 24.8799 27.8016 23.0343C30.5638 21.1886 33.8113 20.2035 37.1333 20.2035H44.2867C44.6207 20.1913 44.9537 20.2465 45.2659 20.3659C45.578 20.4853 45.8629 20.6663 46.1036 20.8983C46.3442 21.1303 46.5356 21.4084 46.6663 21.7159C46.797 22.0235 46.8644 22.3543 46.8644 22.6885C46.8644 23.0228 46.797 23.3535 46.6663 23.6611C46.5356 23.9687 46.3442 24.2468 46.1036 24.4788C45.8629 24.7107 45.578 24.8918 45.2659 25.0112C44.9537 25.1306 44.6207 25.1858 44.2867 25.1735H37.1333C34.7934 25.1735 32.5061 25.8674 30.5606 27.1675C28.6151 28.4675 27.0988 30.3153 26.2035 32.4772C25.3082 34.639 25.0742 37.0178 25.5309 39.3127C25.9876 41.6076 27.1147 43.7155 28.7694 45.3698C30.4242 47.0241 32.5324 48.1506 34.8275 48.6066C37.1225 49.0627 39.5012 48.828 41.6628 47.9321C43.8244 47.0362 45.6717 45.5194 46.9712 43.5735C48.2707 41.6276 48.964 39.3401 48.9633 37.0002V32.3335H37.1367C36.2137 32.3335 35.3114 32.6072 34.544 33.12C33.7766 33.6328 33.1784 34.3616 32.8252 35.2144C32.472 36.0671 32.3796 37.0054 32.5597 37.9106C32.7397 38.8159 33.1842 39.6474 33.8368 40.3C34.4895 40.9527 35.321 41.3971 36.2262 41.5772C37.1315 41.7573 38.0698 41.6649 38.9225 41.3116C39.7753 40.9584 40.5041 40.3603 41.0169 39.5929C41.5296 38.8254 41.8033 37.9232 41.8033 37.0002V34.3335H46.7733V37.0002C46.7733 38.9068 46.208 40.7706 45.1487 42.3559C44.0894 43.9412 42.5839 45.1768 40.8224 45.9064C39.0609 46.636 37.1226 46.8269 35.2527 46.455C33.3827 46.083 31.665 45.1649 30.3168 43.8167C28.9687 42.4685 28.0505 40.7509 27.6786 38.8809C27.3066 37.0109 27.4975 35.0726 28.2271 33.3111C28.9568 31.5497 30.1924 30.0441 31.7776 28.9848C33.3629 27.9256 35.2267 27.3602 37.1333 27.3602Z" fill="#00A9FF"/>
<path opacity="0.5" d="M46.7733 32.3301H41.8033V34.3168H46.7733V32.3301Z" fill="white"/>
<path d="M85.0044 21.1674C84.7804 20.7567 84.4724 20.4441 84.0804 20.2294C83.6884 20.0147 83.231 19.9074 82.7084 19.9074C82.1297 19.9074 81.6164 20.0381 81.1684 20.2994C80.7204 20.5607 80.3704 20.9341 80.1184 21.4194C79.8664 21.9047 79.7404 22.4647 79.7404 23.0994C79.7404 23.7527 79.8664 24.3221 80.1184 24.8074C80.3797 25.2927 80.739 25.6661 81.1964 25.9274C81.6537 26.1887 82.1857 26.3194 82.7924 26.3194C83.539 26.3194 84.1504 26.1234 84.6264 25.7314C85.1024 25.3301 85.415 24.7747 85.5644 24.0654H82.2044V22.5674H87.4964V24.2754C87.3657 24.9567 87.0857 25.5867 86.6564 26.1654C86.227 26.7441 85.6717 27.2107 84.9904 27.5654C84.3184 27.9107 83.5624 28.0834 82.7224 28.0834C81.7797 28.0834 80.9257 27.8734 80.1604 27.4534C79.4044 27.0241 78.807 26.4314 78.3684 25.6754C77.939 24.9194 77.7244 24.0607 77.7244 23.0994C77.7244 22.1381 77.939 21.2794 78.3684 20.5234C78.807 19.7581 79.4044 19.1654 80.1604 18.7454C80.9257 18.3161 81.775 18.1014 82.7084 18.1014C83.8097 18.1014 84.7664 18.3721 85.5784 18.9134C86.3904 19.4454 86.9504 20.1967 87.2584 21.1674H85.0044ZM90.9065 21.4474C91.1585 21.0367 91.4851 20.7147 91.8865 20.4814C92.2971 20.2481 92.7638 20.1314 93.2865 20.1314V22.1894H92.7685C92.1525 22.1894 91.6858 22.3341 91.3685 22.6234C91.0605 22.9127 90.9065 23.4167 90.9065 24.1354V27.9994H88.9465V20.2434H90.9065V21.4474ZM101.929 20.2434V27.9994H99.9546V27.0194C99.7026 27.3554 99.3713 27.6214 98.9606 27.8174C98.5593 28.0041 98.1206 28.0974 97.6446 28.0974C97.038 28.0974 96.5013 27.9714 96.0346 27.7194C95.568 27.4581 95.1993 27.0801 94.9286 26.5854C94.6673 26.0814 94.5366 25.4841 94.5366 24.7934V20.2434H96.4966V24.5134C96.4966 25.1294 96.6506 25.6054 96.9586 25.9414C97.2666 26.2681 97.6866 26.4314 98.2186 26.4314C98.76 26.4314 99.1846 26.2681 99.4926 25.9414C99.8006 25.6054 99.9546 25.1294 99.9546 24.5134V20.2434H101.929ZM108.16 20.1314C109.084 20.1314 109.831 20.4254 110.4 21.0134C110.97 21.5921 111.254 22.4041 111.254 23.4494V27.9994H109.294V23.7154C109.294 23.0994 109.14 22.6281 108.832 22.3014C108.524 21.9654 108.104 21.7974 107.572 21.7974C107.031 21.7974 106.602 21.9654 106.284 22.3014C105.976 22.6281 105.822 23.0994 105.822 23.7154V27.9994H103.862V20.2434H105.822V21.2094C106.084 20.8734 106.415 20.6121 106.816 20.4254C107.227 20.2294 107.675 20.1314 108.16 20.1314ZM115.4 21.8534V25.6054C115.4 25.8667 115.461 26.0581 115.582 26.1794C115.713 26.2914 115.928 26.3474 116.226 26.3474H117.136V27.9994H115.904C114.252 27.9994 113.426 27.1967 113.426 25.5914V21.8534H112.502V20.2434H113.426V18.3254H115.4V20.2434H117.136V21.8534H115.4ZM119.54 19.3194C119.195 19.3194 118.905 19.2121 118.672 18.9974C118.448 18.7734 118.336 18.4981 118.336 18.1714C118.336 17.8447 118.448 17.5741 118.672 17.3594C118.905 17.1354 119.195 17.0234 119.54 17.0234C119.885 17.0234 120.17 17.1354 120.394 17.3594C120.627 17.5741 120.744 17.8447 120.744 18.1714C120.744 18.4981 120.627 18.7734 120.394 18.9974C120.17 19.2121 119.885 19.3194 119.54 19.3194ZM120.506 20.2434V27.9994H118.546V20.2434H120.506ZM125.999 21.8534H124.641V27.9994H122.653V21.8534H121.771V20.2434H122.653V19.8514C122.653 18.8994 122.923 18.1994 123.465 17.7514C124.006 17.3034 124.823 17.0934 125.915 17.1214V18.7734C125.439 18.7641 125.107 18.8434 124.921 19.0114C124.734 19.1794 124.641 19.4827 124.641 19.9214V20.2434H125.999V21.8534ZM134.689 20.2434L129.887 31.6674H127.801L129.481 27.8034L126.373 20.2434H128.571L130.573 25.6614L132.603 20.2434H134.689ZM146.207 21.2514C146.207 21.7741 146.081 22.2641 145.829 22.7214C145.587 23.1787 145.199 23.5474 144.667 23.8274C144.145 24.1074 143.482 24.2474 142.679 24.2474H141.041V27.9994H139.081V18.2274H142.679C143.435 18.2274 144.079 18.3581 144.611 18.6194C145.143 18.8807 145.54 19.2401 145.801 19.6974C146.072 20.1547 146.207 20.6727 146.207 21.2514ZM142.595 22.6654C143.137 22.6654 143.538 22.5441 143.799 22.3014C144.061 22.0494 144.191 21.6994 144.191 21.2514C144.191 20.2994 143.659 19.8234 142.595 19.8234H141.041V22.6654H142.595ZM147.095 24.0934C147.095 23.3094 147.249 22.6141 147.557 22.0074C147.874 21.4007 148.299 20.9341 148.831 20.6074C149.372 20.2807 149.974 20.1174 150.637 20.1174C151.215 20.1174 151.719 20.2341 152.149 20.4674C152.587 20.7007 152.937 20.9947 153.199 21.3494V20.2434H155.173V27.9994H153.199V26.8654C152.947 27.2294 152.597 27.5327 152.149 27.7754C151.71 28.0087 151.201 28.1254 150.623 28.1254C149.969 28.1254 149.372 27.9574 148.831 27.6214C148.299 27.2854 147.874 26.8141 147.557 26.2074C147.249 25.5914 147.095 24.8867 147.095 24.0934ZM153.199 24.1214C153.199 23.6454 153.105 23.2394 152.919 22.9034C152.732 22.5581 152.48 22.2967 152.163 22.1194C151.845 21.9327 151.505 21.8394 151.141 21.8394C150.777 21.8394 150.441 21.9281 150.133 22.1054C149.825 22.2827 149.573 22.5441 149.377 22.8894C149.19 23.2254 149.097 23.6267 149.097 24.0934C149.097 24.5601 149.19 24.9707 149.377 25.3254C149.573 25.6707 149.825 25.9367 150.133 26.1234C150.45 26.3101 150.786 26.4034 151.141 26.4034C151.505 26.4034 151.845 26.3147 152.163 26.1374C152.48 25.9507 152.732 25.6894 152.919 25.3534C153.105 25.0081 153.199 24.5974 153.199 24.1214ZM159.047 21.4474C159.299 21.0367 159.626 20.7147 160.027 20.4814C160.438 20.2481 160.904 20.1314 161.427 20.1314V22.1894H160.909C160.293 22.1894 159.826 22.3341 159.509 22.6234C159.201 22.9127 159.047 23.4167 159.047 24.1354V27.9994H157.087V20.2434H159.047V21.4474ZM165.029 21.8534V25.6054C165.029 25.8667 165.09 26.0581 165.211 26.1794C165.342 26.2914 165.557 26.3474 165.855 26.3474H166.765V27.9994H165.533C163.881 27.9994 163.055 27.1967 163.055 25.5914V21.8534H162.131V20.2434H163.055V18.3254H165.029V20.2434H166.765V21.8534H165.029ZM172.473 20.1314C173.397 20.1314 174.144 20.4254 174.713 21.0134C175.282 21.5921 175.567 22.4041 175.567 23.4494V27.9994H173.607V23.7154C173.607 23.0994 173.453 22.6281 173.145 22.3014C172.837 21.9654 172.417 21.7974 171.885 21.7974C171.344 21.7974 170.914 21.9654 170.597 22.3014C170.289 22.6281 170.135 23.0994 170.135 23.7154V27.9994H168.175V20.2434H170.135V21.2094C170.396 20.8734 170.728 20.6121 171.129 20.4254C171.54 20.2294 171.988 20.1314 172.473 20.1314ZM184.641 23.9534C184.641 24.2334 184.622 24.4854 184.585 24.7094H178.915C178.962 25.2694 179.158 25.7081 179.503 26.0254C179.848 26.3427 180.273 26.5014 180.777 26.5014C181.505 26.5014 182.023 26.1887 182.331 25.5634H184.445C184.221 26.3101 183.792 26.9261 183.157 27.4114C182.522 27.8874 181.743 28.1254 180.819 28.1254C180.072 28.1254 179.4 27.9621 178.803 27.6354C178.215 27.2994 177.753 26.8281 177.417 26.2214C177.09 25.6147 176.927 24.9147 176.927 24.1214C176.927 23.3187 177.09 22.6141 177.417 22.0074C177.744 21.4007 178.201 20.9341 178.789 20.6074C179.377 20.2807 180.054 20.1174 180.819 20.1174C181.556 20.1174 182.214 20.2761 182.793 20.5934C183.381 20.9107 183.834 21.3634 184.151 21.9514C184.478 22.5301 184.641 23.1974 184.641 23.9534ZM182.611 23.3934C182.602 22.8894 182.42 22.4881 182.065 22.1894C181.71 21.8814 181.276 21.7274 180.763 21.7274C180.278 21.7274 179.867 21.8767 179.531 22.1754C179.204 22.4647 179.004 22.8707 178.929 23.3934H182.611ZM188.031 21.4474C188.283 21.0367 188.61 20.7147 189.011 20.4814C189.422 20.2481 189.889 20.1314 190.411 20.1314V22.1894H189.893C189.277 22.1894 188.811 22.3341 188.493 22.6234C188.185 22.9127 188.031 23.4167 188.031 24.1354V27.9994H186.071V20.2434H188.031V21.4474Z" fill="#77767E"/>
<path d="M82.0819 44.7V47.54H86.6619V50.18H82.0819V53.26H87.2619V56H78.6619V41.96H87.2619V44.7H82.0819ZM96.0822 56L93.9422 52.9L92.1422 56H88.4422L92.1222 50.3L88.3422 44.84H92.1822L94.3222 47.92L96.1222 44.84H99.8222L96.0822 50.46L99.9222 56H96.0822ZM104.66 46.42C104.993 45.9 105.453 45.48 106.04 45.16C106.627 44.84 107.313 44.68 108.1 44.68C109.02 44.68 109.853 44.9133 110.6 45.38C111.347 45.8467 111.933 46.5133 112.36 47.38C112.8 48.2467 113.02 49.2533 113.02 50.4C113.02 51.5467 112.8 52.56 112.36 53.44C111.933 54.3067 111.347 54.98 110.6 55.46C109.853 55.9267 109.02 56.16 108.1 56.16C107.327 56.16 106.64 56 106.04 55.68C105.453 55.36 104.993 54.9467 104.66 54.44V61.32H101.24V44.84H104.66V46.42ZM109.54 50.4C109.54 49.5467 109.3 48.88 108.82 48.4C108.353 47.9067 107.773 47.66 107.08 47.66C106.4 47.66 105.82 47.9067 105.34 48.4C104.873 48.8933 104.64 49.5667 104.64 50.42C104.64 51.2733 104.873 51.9467 105.34 52.44C105.82 52.9333 106.4 53.18 107.08 53.18C107.76 53.18 108.34 52.9333 108.82 52.44C109.3 51.9333 109.54 51.2533 109.54 50.4ZM125.334 50.24C125.334 50.56 125.314 50.8933 125.274 51.24H117.534C117.588 51.9333 117.808 52.4667 118.194 52.84C118.594 53.2 119.081 53.38 119.654 53.38C120.508 53.38 121.101 53.02 121.434 52.3H125.074C124.888 53.0333 124.548 53.6933 124.054 54.28C123.574 54.8667 122.968 55.3267 122.234 55.66C121.501 55.9933 120.681 56.16 119.774 56.16C118.681 56.16 117.708 55.9267 116.854 55.46C116.001 54.9933 115.334 54.3267 114.854 53.46C114.374 52.5933 114.134 51.58 114.134 50.42C114.134 49.26 114.368 48.2467 114.834 47.38C115.314 46.5133 115.981 45.8467 116.834 45.38C117.688 44.9133 118.668 44.68 119.774 44.68C120.854 44.68 121.814 44.9067 122.654 45.36C123.494 45.8133 124.148 46.46 124.614 47.3C125.094 48.14 125.334 49.12 125.334 50.24ZM121.834 49.34C121.834 48.7533 121.634 48.2867 121.234 47.94C120.834 47.5933 120.334 47.42 119.734 47.42C119.161 47.42 118.674 47.5867 118.274 47.92C117.888 48.2533 117.648 48.7267 117.554 49.34H121.834ZM130.558 46.7C130.958 46.0867 131.458 45.6067 132.058 45.26C132.658 44.9 133.325 44.72 134.058 44.72V48.34H133.118C132.265 48.34 131.625 48.5267 131.198 48.9C130.772 49.26 130.558 49.9 130.558 50.82V56H127.138V44.84H130.558V46.7ZM141.913 53.1V56H140.173C138.933 56 137.966 55.7 137.273 55.1C136.58 54.4867 136.233 53.4933 136.233 52.12V47.68H134.873V44.84H136.233V42.12H139.653V44.84H141.893V47.68H139.653V52.16C139.653 52.4933 139.733 52.7333 139.893 52.88C140.053 53.0267 140.32 53.1 140.693 53.1H141.913Z" fill="#232326"/>
<path d="M37 2H187V0H37V2ZM187 72H37V74H187V72ZM37 72C17.67 72 2 56.33 2 37H0C0 57.4345 16.5655 74 37 74V72ZM222 37C222 56.33 206.33 72 187 72V74C207.435 74 224 57.4345 224 37H222ZM187 2C206.33 2 222 17.67 222 37H224C224 16.5655 207.435 0 187 0V2ZM37 0C16.5655 0 0 16.5655 0 37H2C2 17.67 17.67 2 37 2V0Z" fill="#E6E4EA"/>
</svg>
