<svg width="37" height="42" viewBox="0 0 37 42" fill="none" xmlns="http://www.w3.org/2000/svg">
<path d="M18.4688 21C23.9916 21 28.4688 16.5228 28.4688 11C28.4688 5.47715 23.9916 1 18.4688 1C12.9459 1 8.46875 5.47715 8.46875 11C8.46875 16.5228 12.9459 21 18.4688 21Z" stroke="#2E3538"/>
<path d="M28.4689 25H29.1729C30.635 25.0004 32.0467 25.5347 33.1427 26.5026C34.2387 27.4704 34.9436 28.8051 35.1249 30.256L35.9069 36.504C35.9772 37.0669 35.927 37.6382 35.7597 38.1802C35.5923 38.7222 35.3116 39.2224 34.9361 39.6476C34.5607 40.0728 34.0991 40.4133 33.582 40.6464C33.0649 40.8796 32.5041 41.0001 31.9369 41H5.00087C4.43364 41.0001 3.87286 40.8796 3.35576 40.6464C2.83867 40.4133 2.37707 40.0728 2.00162 39.6476C1.62617 39.2224 1.34545 38.7222 1.17808 38.1802C1.01071 37.6382 0.960534 37.0669 1.03087 36.504L1.81087 30.256C1.99226 28.8044 2.6977 27.4692 3.79454 26.5012C4.89137 25.5333 6.30403 24.9994 7.76687 25H8.46887" stroke="#2E3538" stroke-linecap="round" stroke-linejoin="round"/>
</svg>
