<svg width="55" height="43" viewBox="0 0 55 43" fill="none" xmlns="http://www.w3.org/2000/svg">
<path d="M24.2 0.299997L3.2 0.299995L3.2 21.3L12.58 21.3C11.9267 24.0067 10.5733 26.34 8.52 28.3C6.37333 30.3533 3.66667 31.7533 0.400002 32.5L0.400002 43C8.24 41.4133 14.1667 37.96 18.18 32.64C22.1933 27.4133 24.2 20.6933 24.2 12.48L24.2 0.299997ZM55 0.299999L34 0.299997L34 21.3L43.38 21.3C42.7267 24.0067 41.3733 26.34 39.32 28.3C37.1733 30.3533 34.4667 31.7533 31.2 32.5L31.2 43C39.04 41.4133 44.9667 37.96 48.98 32.64C52.9933 27.4133 55 20.6933 55 12.48L55 0.299999Z" fill="white"/>
</svg>
