<svg width="45" height="46" viewBox="0 0 45 46" fill="none" xmlns="http://www.w3.org/2000/svg">
<path d="M44 40.1109H14.6667M0 5.88867H9.77778H0ZM44 5.88867H19.5556H44ZM0 22.9998H29.3333H0ZM44 22.9998H39.1111H44ZM0 40.1109H4.88889H0Z" stroke="#AD65C0" stroke-width="2" stroke-linecap="round"/>
<path d="M14.6667 10.7778C17.3668 10.7778 19.5556 8.58895 19.5556 5.88889C19.5556 3.18883 17.3668 1 14.6667 1C11.9667 1 9.77783 3.18883 9.77783 5.88889C9.77783 8.58895 11.9667 10.7778 14.6667 10.7778Z" stroke="#AD65C0" stroke-width="2" stroke-linecap="round"/>
<path d="M34.2221 27.8891C36.9222 27.8891 39.111 25.7003 39.111 23.0002C39.111 20.3002 36.9222 18.1113 34.2221 18.1113C31.5221 18.1113 29.3333 20.3002 29.3333 23.0002C29.3333 25.7003 31.5221 27.8891 34.2221 27.8891Z" stroke="#AD65C0" stroke-width="2" stroke-linecap="round"/>
<path d="M9.7778 44.9999C12.4779 44.9999 14.6667 42.8111 14.6667 40.1111C14.6667 37.411 12.4779 35.2222 9.7778 35.2222C7.07775 35.2222 4.88892 37.411 4.88892 40.1111C4.88892 42.8111 7.07775 44.9999 9.7778 44.9999Z" stroke="#AD65C0" stroke-width="2" stroke-linecap="round"/>
</svg>
