<svg width="63" height="46" viewBox="0 0 63 46" fill="none" xmlns="http://www.w3.org/2000/svg">
<path d="M60.3051 19.7377C61.7948 21.6863 61.7948 24.3169 60.3051 26.2623C55.6128 32.3877 44.3551 45 31.2117 45C18.0682 45 6.81053 32.3877 2.11824 26.2623C1.39345 25.3293 1 24.1815 1 23C1 21.8185 1.39345 20.6707 2.11824 19.7377C6.81053 13.6123 18.0682 1 31.2117 1C44.3551 1 55.6128 13.6123 60.3051 19.7377V19.7377Z" stroke="#CD5154" stroke-width="2" stroke-linecap="round" stroke-linejoin="round"/>
<path d="M31.2117 32.4284C36.4189 32.4284 40.6402 28.2071 40.6402 22.9999C40.6402 17.7926 36.4189 13.5713 31.2117 13.5713C26.0044 13.5713 21.7831 17.7926 21.7831 22.9999C21.7831 28.2071 26.0044 32.4284 31.2117 32.4284Z" stroke="#CD5154" stroke-width="2" stroke-linecap="round" stroke-linejoin="round"/>
</svg>
