<svg width="315" height="66" viewBox="0 0 315 66" fill="none" xmlns="http://www.w3.org/2000/svg">
<path d="M39.8093 23.969C38.2881 23.6896 36.794 23.4197 35.319 23.1703L33.7374 22.9043L34.7472 24.1381C37.1614 27.0921 39.946 29.7274 43.0225 31.9716L43.2961 32.1714L43.6109 32.044C46.8441 30.7369 49.9166 29.0113 52.741 26.9127L54.0189 25.9637L52.4262 25.8362C48.1649 25.4939 43.9179 24.7196 39.8093 23.969ZM43.4662 30.8062C41.0195 28.9916 38.7676 26.9213 36.7503 24.6362C37.687 24.8007 38.6324 24.973 39.5906 25.1493C43.211 25.8095 46.9395 26.4901 50.7102 26.882C48.4297 28.44 46.0004 29.7557 43.4662 30.8062Z" fill="white"/>
<path d="M13.2459 32.3935C17.9501 34.1664 22.9009 35.0658 27.9581 35.0658C32.6162 35.0658 37.1924 34.3057 41.5619 32.8051L42.6155 32.4423L41.7352 31.7656C38.4663 29.2491 35.5583 26.3054 33.0933 23.0146L32.12 23.7291C34.4268 26.809 37.1121 29.593 40.1123 32.0174C36.1905 33.2457 32.1081 33.8674 27.9589 33.8674C23.2229 33.8674 18.5855 33.0553 14.1651 31.454L15.6092 24.8678C16.2222 24.6207 16.86 24.4011 17.508 24.2139L17.1677 23.0619C16.3717 23.2932 15.5917 23.5686 14.8474 23.8826L14.5587 24.0038L12.7593 32.2102L13.2459 32.3935Z" fill="white"/>
<path d="M58.9777 25.9678C58.2612 26.004 57.5273 26.0221 56.7751 26.0221L56.0777 26.0071L55.9036 26.1551C52.8 28.8139 49.3546 31.0038 45.6626 32.6665L44.6456 33.1237L45.5886 33.7178C50.2078 36.6254 55.2634 38.665 60.6173 39.7784L61.4578 39.9539L59.5343 25.9395L58.9777 25.9678ZM47.1822 33.285C50.5258 31.6735 53.6612 29.6355 56.519 27.2142L56.7751 27.2205C57.3547 27.2205 57.9225 27.2103 58.4815 27.189L60.0241 38.4226C55.4845 37.3878 51.1739 35.6622 47.1822 33.285Z" fill="white"/>
<path d="M61.1159 40.4868C55.0416 39.3112 49.3641 36.9805 44.2392 33.5599L43.9752 33.3828L43.6778 33.4977C38.2921 35.5995 32.5582 36.6295 26.7646 36.4186L26.1102 36.3958L19.5373 46.6985L28.3144 46.5647L37.2584 56.7651L36.7535 57.1814L37.9351 57.4568C42.2457 58.4601 46.7599 59.4405 50.4137 59.4405C50.6379 59.4405 50.8526 59.4342 51.0681 59.4264L51.0244 58.2279C47.524 58.3633 42.9113 57.3805 38.5084 56.3583L28.8614 45.3561L21.7582 45.4647L26.7638 37.6194C27.1614 37.6344 27.559 37.6477 27.9581 37.6477C33.4186 37.6477 38.7565 36.6657 43.8265 34.7284C48.8965 38.0648 54.4873 40.368 60.4575 41.5782L61.3743 48.2644L62.5758 48.1023L61.5413 40.5686L61.1159 40.4868Z" fill="white"/>
<path d="M24.4053 36.2907C20.5312 35.976 16.7319 35.1442 13.1107 33.8199L12.4563 33.5791L9.54596 46.8476L18.8057 46.7075L25.4016 36.371L24.4053 36.2907ZM18.1322 45.5201L11.0544 45.6263L13.3461 35.1781C16.5617 36.297 19.9078 37.0406 23.3159 37.3947L18.1322 45.5201Z" fill="white"/>
<path d="M8.04071 53.7055L8.85655 53.6386C10.1567 53.5331 11.5259 53.478 12.927 53.478C20.272 53.478 27.4985 55.0195 33.6944 56.4627L35.5201 56.8884L27.6861 47.9541L9.24301 48.235L8.04071 53.7055ZM10.2234 49.4201L27.1414 49.162L32.1526 54.8771C26.3145 53.5536 19.6891 52.2804 12.9278 52.2804C11.7828 52.2804 10.6576 52.3158 9.57141 52.3851L10.2234 49.4201Z" fill="white"/>
<path d="M25.4932 27.4647C25.4932 27.4647 25.812 27.1562 25.8907 27.072C32.5996 19.9751 36.4013 16.4129 36.4013 10.7937C36.4013 4.83305 31.5182 0 25.4932 0C19.4666 0 14.5842 4.83305 14.5842 10.7937C14.5842 16.4129 18.3907 19.979 25.1011 27.0767C25.1854 27.1664 25.4932 27.4647 25.4932 27.4647ZM15.7953 10.7937C15.7953 5.50348 20.1456 1.2 25.4924 1.2C30.8391 1.2 35.1887 5.50426 35.1887 10.7937C35.1887 15.5308 32.074 18.8097 26.4179 24.7625L25.4916 25.7382L24.566 24.7625C18.9107 18.8081 15.7953 15.5292 15.7953 10.7937Z" fill="white"/>
<path d="M31.1929 10.9343C31.1929 7.82457 28.6364 5.29395 25.4932 5.29395C22.3499 5.29395 19.7926 7.82457 19.7926 10.9343C19.7926 14.0449 22.3499 16.5755 25.4932 16.5755C28.6357 16.5755 31.1929 14.0449 31.1929 10.9343ZM21.0044 10.9343C21.0044 8.48477 23.0178 6.49159 25.4932 6.49159C27.9677 6.49159 29.9811 8.48398 29.9811 10.9343C29.9811 13.3847 27.9677 15.3771 25.4932 15.3771C23.0178 15.3771 21.0044 13.3839 21.0044 10.9343Z" fill="white"/>
<path d="M65.8526 18.5891L62.6091 19.0849C60.9759 19.3311 59.2949 19.4531 57.47 19.4531C52.3109 19.4531 46.8696 18.4569 41.6072 17.4953L41.4648 17.4694C40.1369 17.227 38.7978 16.9847 37.4548 16.7549L37.2481 17.936C38.5879 18.165 39.9214 18.4081 41.2446 18.6489L41.3869 18.6741C46.7034 19.6459 52.1996 20.6515 57.47 20.6515C59.3569 20.6515 61.0983 20.5272 62.7928 20.2707L64.8181 19.9614L69.3434 52.9264L54.267 64.5881L53.7096 64.6557C52.8827 64.7517 51.9984 64.8021 51.08 64.8021C46.371 64.8021 40.9496 63.5234 35.1552 62.1574C28.498 60.5875 20.9527 58.8084 13.4057 58.8084C10.2911 58.8084 7.42607 59.0988 4.64696 59.6984L1.58318 60.357L10.3666 20.3297L11.1928 19.8953C12.0699 19.4303 12.993 19.0148 14.0164 18.6245L13.5807 17.5064C12.5104 17.9148 11.5427 18.3507 10.6227 18.8362L9.30108 19.531L0 61.9237L4.9046 60.8685C7.59863 60.2893 10.3793 60.0053 13.4057 60.0053C20.8095 60.0053 28.2817 61.7679 34.9286 63.3361C40.7396 64.7061 46.2279 65.9997 51.08 65.9997C52.0445 65.9997 52.9781 65.9478 53.8536 65.8455L54.7481 65.7369L70.6388 53.4466L65.8526 18.5891Z" fill="white"/>
<path d="M52.0447 62.4611L53.1317 62.9915L58.6143 51.9837L66.6201 51.1646L66.496 49.9717L57.8239 50.8593L52.0447 62.4611Z" fill="white"/>
<path d="M102.541 40.1436C93.7687 40.1436 87.3096 34.1478 87.3096 24.7581C87.3096 15.2438 93.9155 9.22754 102.857 9.22754C108.727 9.22754 113.586 11.7882 116.237 16.3059L110.704 19.2206C109.105 16.1394 106.244 14.6613 102.857 14.6613C97.5977 14.6613 93.6425 18.2422 93.6425 24.6127C93.6425 30.7542 97.3452 34.7099 103.089 34.7099C106.981 34.7099 110.557 32.7945 111.42 28.4017H103.11V23.3844H117.395V39.7272H112.43V35.5633C110.473 38.4156 107.191 40.1435 102.542 40.1435L102.541 40.1436ZM142.293 40.1436C133.352 40.1436 126.745 34.1061 126.745 24.6749C126.745 15.2232 133.351 9.22754 142.293 9.22754C151.213 9.22754 157.819 15.2234 157.819 24.6749C157.819 34.1059 151.213 40.1436 142.293 40.1436ZM142.293 34.4184C147.531 34.4184 151.55 30.7751 151.55 24.6752C151.55 18.5961 147.531 14.9736 142.293 14.9736C137.054 14.9736 133.036 18.596 133.036 24.6752C133.036 30.7752 137.054 34.4184 142.293 34.4184ZM184.601 39.7272V9.64364H195.604C205.302 9.64364 210.099 15.6811 210.099 24.6753C210.099 33.6898 205.302 39.7272 195.604 39.7272H184.601ZM190.912 34.2102H195.288C200.884 34.2102 203.451 30.7543 203.451 24.6752C203.451 18.5961 200.884 15.1402 195.288 15.1402H190.912V34.2107V34.2102ZM234.366 40.1436C225.424 40.1436 218.818 34.1061 218.818 24.6749C218.818 15.2232 225.424 9.22754 234.366 9.22754C243.286 9.22754 249.892 15.2234 249.892 24.6749C249.892 34.1059 243.286 40.1436 234.366 40.1436ZM234.366 34.4184C239.604 34.4184 243.622 30.7751 243.622 24.6752C243.622 18.5961 239.604 14.9736 234.366 14.9736C229.127 14.9736 225.109 18.596 225.109 24.6752C225.109 30.7752 229.127 34.4184 234.366 34.4184ZM276.673 39.7272V9.64364H282.985V39.7272H276.673ZM313.354 9.64364V15.1399H306.138V39.7265H299.889V15.1399H292.631V9.64364H313.353H313.354Z" fill="white"/>
<path d="M89.3991 53.9402V56.0823H94.64V57.3113H88.1572V48.9004H94.1387V50.1406H89.3991V52.6887C89.6346 52.5534 89.8966 52.4632 90.1852 52.4181C90.3979 52.3805 90.6714 52.3617 91.0056 52.3617H92.8627V53.6132H91.0056C90.6941 53.6132 90.4207 53.632 90.1852 53.6696C89.8966 53.7222 89.6346 53.8124 89.3991 53.9402ZM96.8845 50.0842L95.8933 48.9004H97.4998L102.957 55.3269V48.9004H104.21V57.3113H102.98L98.1036 51.5274V57.3113H96.8845V50.0842ZM113.04 50.1406H110.044V57.3113H108.836V50.1406H105.806V48.9004H113.04V50.1406ZM115.877 53.9402V56.0823H121.118V57.3113H114.635V48.9004H120.617V50.1406H115.877V52.6887C116.113 52.5534 116.375 52.4632 116.663 52.4181C116.876 52.3805 117.15 52.3617 117.484 52.3617H119.341V53.6132H117.484C117.172 53.6132 116.899 53.632 116.663 53.6696C116.375 53.7222 116.113 53.8124 115.877 53.9402ZM124.354 50.1293V52.9254C124.589 52.7901 124.851 52.6999 125.14 52.6549C125.353 52.6173 125.626 52.5985 125.96 52.5985H127.578C128.026 52.5985 128.376 52.497 128.626 52.2941C128.892 52.0761 129.025 51.7491 129.025 51.3132C129.025 50.8998 128.885 50.5916 128.604 50.3886C128.361 50.2158 128.019 50.1293 127.578 50.1293H124.354ZM127.988 55.9809L126.952 53.8274H125.96C125.649 53.8274 125.376 53.8462 125.14 53.8838C124.851 53.9364 124.589 54.0266 124.354 54.1544V57.3113H123.112V48.9004H127.578C128.102 48.9004 128.566 48.9981 128.968 49.1935C129.371 49.389 129.682 49.6671 129.902 50.0279C130.138 50.4112 130.256 50.8622 130.256 51.3808C130.256 52.0122 130.085 52.5308 129.743 52.9367C129.401 53.3426 128.919 53.6245 128.296 53.7823L128.957 55.124C129.147 55.4021 129.295 55.5975 129.401 55.7103C129.53 55.8531 129.654 55.9489 129.771 55.9978C129.889 56.0466 130.043 56.0711 130.233 56.0711H130.358L130.632 56.0598V57.3113C130.191 57.3113 129.864 57.2963 129.652 57.2662C129.295 57.2061 128.991 57.0896 128.74 56.9167C128.444 56.7062 128.193 56.3943 127.988 55.9809ZM135.542 52.497H137.046C137.882 52.497 138.299 52.0986 138.299 51.3019C138.299 50.8885 138.195 50.5897 137.986 50.4056C137.777 50.2214 137.464 50.1293 137.046 50.1293H133.924V52.8352C134.16 52.6999 134.426 52.606 134.722 52.5534C134.942 52.5158 135.216 52.497 135.542 52.497ZM133.924 57.3113H132.682V48.9004H137.046C137.547 48.9004 137.984 48.9962 138.356 49.1879C138.729 49.3796 139.017 49.6558 139.222 50.0166C139.427 50.3774 139.53 50.8039 139.53 51.2963C139.53 51.7886 139.427 52.2189 139.222 52.5872C139.017 52.9555 138.727 53.2393 138.351 53.4384C137.975 53.6376 137.54 53.7372 137.046 53.7372H135.542C134.889 53.7372 134.35 53.85 133.924 54.0755V57.3113ZM142.595 50.1293V52.9254C142.83 52.7901 143.092 52.6999 143.381 52.6549C143.593 52.6173 143.867 52.5985 144.201 52.5985H145.819C146.267 52.5985 146.617 52.497 146.867 52.2941C147.133 52.0761 147.266 51.7491 147.266 51.3132C147.266 50.8998 147.125 50.5916 146.844 50.3886C146.601 50.2158 146.26 50.1293 145.819 50.1293H142.595ZM146.229 55.9809L145.192 53.8274H144.201C143.89 53.8274 143.616 53.8462 143.381 53.8838C143.092 53.9364 142.83 54.0266 142.595 54.1544V57.3113H141.353V48.9004H145.819C146.343 48.9004 146.806 48.9981 147.209 49.1935C147.612 49.389 147.923 49.6671 148.143 50.0279C148.379 50.4112 148.496 50.8622 148.496 51.3808C148.496 52.0122 148.326 52.5308 147.984 52.9367C147.642 53.3426 147.16 53.6245 146.537 53.7823L147.198 55.124C147.387 55.4021 147.536 55.5975 147.642 55.7103C147.771 55.8531 147.894 55.9489 148.012 55.9978C148.13 56.0466 148.284 56.0711 148.474 56.0711H148.599L148.872 56.0598V57.3113C148.432 57.3113 148.105 57.2963 147.893 57.2662C147.536 57.2061 147.232 57.0896 146.981 56.9167C146.685 56.7062 146.434 56.3943 146.229 55.9809ZM152.142 57.3113H150.923V48.9004H152.142V57.3113ZM161.257 54.7519C161.257 55.3006 161.09 55.7892 160.756 56.2176C160.429 56.6235 159.979 56.9392 159.406 57.1647C158.832 57.3902 158.185 57.503 157.463 57.503C156.802 57.503 156.16 57.3507 155.537 57.0463C154.915 56.7419 154.391 56.3191 153.965 55.7779L154.854 54.9549C155.591 55.8343 156.46 56.274 157.463 56.274C157.904 56.274 158.306 56.2214 158.671 56.1162C159.073 55.9959 159.385 55.8268 159.605 55.6088C159.856 55.3683 159.981 55.0827 159.981 54.7519C159.981 54.3536 159.856 54.0529 159.605 53.85C159.392 53.6771 159.077 53.5643 158.659 53.5117C158.416 53.4817 158.017 53.4666 157.463 53.4666C156.445 53.4666 155.669 53.2825 155.133 52.9142C154.598 52.5459 154.33 52.0047 154.33 51.2906C154.33 50.8396 154.465 50.4112 154.734 50.0053C155.004 49.5994 155.374 49.2762 155.845 49.0357C156.331 48.7801 156.871 48.6523 157.463 48.6523C158.131 48.6523 158.735 48.7538 159.275 48.9568C159.852 49.1747 160.387 49.5167 160.881 49.9828L160.106 50.8847C159.643 50.5164 159.221 50.259 158.842 50.1124C158.462 49.9658 158.002 49.8926 157.463 49.8926C157.152 49.8926 156.861 49.9564 156.591 50.0842C156.322 50.212 156.107 50.383 155.948 50.5972C155.788 50.8114 155.708 51.0388 155.708 51.2793C155.708 51.9258 156.312 52.249 157.52 52.249C158.485 52.249 159.248 52.3467 159.81 52.5421C160.342 52.73 160.721 53.0156 160.949 53.399C161.154 53.7372 161.257 54.1882 161.257 54.7519ZM164.322 53.9402V56.0823H169.563V57.3113H163.08V48.9004H169.061V50.1406H164.322V52.6887C164.557 52.5534 164.819 52.4632 165.108 52.4181C165.321 52.3805 165.594 52.3617 165.928 52.3617H167.785V53.6132H165.928C165.617 53.6132 165.343 53.632 165.108 53.6696C164.819 53.7222 164.557 53.8124 164.322 53.9402ZM177.299 49.7911L176.832 48.7538H178.199L182.289 57.3113H180.899L180.341 56.0823H177.755C177.268 56.0823 176.832 56.1274 176.444 56.2176C176.102 56.3003 175.818 56.4093 175.59 56.5446C175.385 56.6649 175.248 56.7889 175.18 56.9167L174.963 57.3113H173.619L177.299 49.7911ZM178.21 54.8421H179.783L177.925 51.2906L176.046 55.3157C176.213 55.1729 176.467 55.0601 176.809 54.9774C177.196 54.8872 177.663 54.8421 178.21 54.8421ZM190.492 54.7519C190.492 55.3006 190.325 55.7892 189.991 56.2176C189.664 56.6235 189.214 56.9392 188.641 57.1647C188.067 57.3902 187.42 57.503 186.698 57.503C186.037 57.503 185.396 57.3507 184.773 57.0463C184.15 56.7419 183.626 56.3191 183.201 55.7779L184.089 54.9549C184.826 55.8343 185.696 56.274 186.698 56.274C187.139 56.274 187.541 56.2214 187.906 56.1162C188.309 55.9959 188.62 55.8268 188.84 55.6088C189.091 55.3683 189.216 55.0827 189.216 54.7519C189.216 54.3536 189.091 54.0529 188.84 53.85C188.628 53.6771 188.312 53.5643 187.895 53.5117C187.652 53.4817 187.253 53.4666 186.698 53.4666C185.68 53.4666 184.904 53.2825 184.368 52.9142C183.833 52.5459 183.565 52.0047 183.565 51.2906C183.565 50.8396 183.7 50.4112 183.97 50.0053C184.239 49.5994 184.61 49.2762 185.08 49.0357C185.567 48.7801 186.106 48.6523 186.698 48.6523C187.367 48.6523 187.971 48.7538 188.51 48.9568C189.087 49.1747 189.623 49.5167 190.116 49.9828L189.342 50.8847C188.878 50.5164 188.457 50.259 188.077 50.1124C187.697 49.9658 187.238 49.8926 186.698 49.8926C186.387 49.8926 186.096 49.9564 185.827 50.0842C185.557 50.212 185.342 50.383 185.183 50.5972C185.023 50.8114 184.944 51.0388 184.944 51.2793C184.944 51.9258 185.548 52.249 186.755 52.249C187.72 52.249 188.483 52.3467 189.045 52.5421C189.577 52.73 189.957 53.0156 190.185 53.399C190.39 53.7372 190.492 54.1882 190.492 54.7519ZM198.923 54.7519C198.923 55.3006 198.756 55.7892 198.422 56.2176C198.095 56.6235 197.645 56.9392 197.072 57.1647C196.498 57.3902 195.851 57.503 195.129 57.503C194.469 57.503 193.827 57.3507 193.204 57.0463C192.581 56.7419 192.057 56.3191 191.632 55.7779L192.52 54.9549C193.257 55.8343 194.127 56.274 195.129 56.274C195.57 56.274 195.972 56.2214 196.337 56.1162C196.74 55.9959 197.051 55.8268 197.271 55.6088C197.522 55.3683 197.647 55.0827 197.647 54.7519C197.647 54.3536 197.522 54.0529 197.271 53.85C197.059 53.6771 196.743 53.5643 196.326 53.5117C196.083 53.4817 195.684 53.4666 195.129 53.4666C194.112 53.4666 193.335 53.2825 192.799 52.9142C192.264 52.5459 191.996 52.0047 191.996 51.2906C191.996 50.8396 192.131 50.4112 192.401 50.0053C192.67 49.5994 193.041 49.2762 193.512 49.0357C193.998 48.7801 194.537 48.6523 195.129 48.6523C195.798 48.6523 196.402 48.7538 196.941 48.9568C197.518 49.1747 198.054 49.5167 198.547 49.9828L197.773 50.8847C197.309 50.5164 196.888 50.259 196.508 50.1124C196.128 49.9658 195.669 49.8926 195.129 49.8926C194.818 49.8926 194.527 49.9564 194.258 50.0842C193.988 50.212 193.774 50.383 193.614 50.5972C193.455 50.8114 193.375 51.0388 193.375 51.2793C193.375 51.9258 193.979 52.249 195.186 52.249C196.151 52.249 196.914 52.3467 197.476 52.5421C198.008 52.73 198.388 53.0156 198.616 53.399C198.821 53.7372 198.923 54.1882 198.923 54.7519ZM201.988 53.9402V56.0823H207.229V57.3113H200.746V48.9004H206.728V50.1406H201.988V52.6887C202.224 52.5534 202.486 52.4632 202.774 52.4181C202.987 52.3805 203.26 52.3617 203.595 52.3617H205.452V53.6132H203.595C203.283 53.6132 203.01 53.632 202.774 53.6696C202.486 53.7222 202.224 53.8124 201.988 53.9402ZM215.546 50.1406H212.55V57.3113H211.342V50.1406H208.311V48.9004H215.546V50.1406ZM227.486 51.5274L224.581 54.9662L221.699 51.5274V57.3113H220.48V50.0842L219.488 48.9004H221.095L224.57 53.0269L228.09 48.9004H229.697L228.706 50.0842V57.3113H227.486V51.5274ZM234.117 49.7911L233.65 48.7538H235.017L239.108 57.3113H237.718L237.159 56.0823H234.573C234.087 56.0823 233.65 56.1274 233.263 56.2176C232.921 56.3003 232.636 56.4093 232.408 56.5446C232.203 56.6649 232.067 56.7889 231.998 56.9167L231.782 57.3113H230.437L234.117 49.7911ZM235.029 54.8421H236.601L234.744 51.2906L232.864 55.3157C233.031 55.1729 233.286 55.0601 233.628 54.9774C234.015 54.8872 234.482 54.8421 235.029 54.8421ZM240.953 50.0842L239.962 48.9004H241.569L247.026 55.3269V48.9004H248.279V57.3113H247.049L242.173 51.5274V57.3113H240.953V50.0842ZM253.441 49.7911L252.973 48.7538H254.341L258.431 57.3113H257.041L256.483 56.0823H253.896C253.41 56.0823 252.973 56.1274 252.586 56.2176C252.244 56.3003 251.959 56.4093 251.732 56.5446C251.526 56.6649 251.39 56.7889 251.321 56.9167L251.105 57.3113H249.76L253.441 49.7911ZM254.352 54.8421H255.924L254.067 51.2906L252.187 55.3157C252.354 55.1729 252.609 55.0601 252.951 54.9774C253.338 54.8872 253.805 54.8421 254.352 54.8421ZM267.306 49.9828L266.509 50.9073C266.197 50.5916 265.825 50.3435 265.392 50.1631C264.959 49.9828 264.503 49.8926 264.025 49.8926C263.402 49.8926 262.834 50.0316 262.322 50.3097C261.809 50.5878 261.408 50.9674 261.12 51.4485C260.823 51.9521 260.675 52.512 260.675 53.1284C260.675 53.7147 260.835 54.2559 261.154 54.7519C261.458 55.218 261.866 55.5881 262.379 55.8625C262.891 56.1368 263.444 56.274 264.036 56.274C264.454 56.274 264.855 56.2026 265.238 56.0598C265.622 55.917 265.966 55.7178 266.269 55.4622V53.9289H265.176L264.64 52.7112H267.5V55.9809C267.067 56.4619 266.549 56.8359 265.945 57.1027C265.341 57.3695 264.701 57.503 264.025 57.503C263.182 57.503 262.407 57.3 261.701 56.8941C261.01 56.5033 260.466 55.9658 260.071 55.2818C259.661 54.5828 259.456 53.8161 259.456 52.9818C259.456 52.1776 259.673 51.4372 260.106 50.7607C260.516 50.1143 261.072 49.6013 261.775 49.2217C262.477 48.8421 263.231 48.6523 264.036 48.6523C264.667 48.6523 265.267 48.7726 265.837 49.0131C266.391 49.2386 266.881 49.5618 267.306 49.9828ZM270.85 53.9402V56.0823H276.091V57.3113H269.608V48.9004H275.589V50.1406H270.85V52.6887C271.085 52.5534 271.347 52.4632 271.636 52.4181C271.848 52.3805 272.122 52.3617 272.456 52.3617H274.313V53.6132H272.456C272.145 53.6132 271.871 53.632 271.636 53.6696C271.347 53.7222 271.085 53.8124 270.85 53.9402ZM285.342 51.5274L282.437 54.9662L279.554 51.5274V57.3113H278.335V50.0842L277.344 48.9004H278.95L282.425 53.0269L285.946 48.9004H287.552L286.561 50.0842V57.3113H285.342V51.5274ZM290.56 53.9402V56.0823H295.801V57.3113H289.318V48.9004H295.3V50.1406H290.56V52.6887C290.796 52.5534 291.058 52.4632 291.346 52.4181C291.559 52.3805 291.832 52.3617 292.167 52.3617H294.024V53.6132H292.167C291.855 53.6132 291.582 53.632 291.346 53.6696C291.058 53.7222 290.796 53.8124 290.56 53.9402ZM298.046 50.0842L297.054 48.9004H298.661L304.118 55.3269V48.9004H305.371V57.3113H304.141L299.265 51.5274V57.3113H298.046V50.0842ZM314.201 50.1406H311.205V57.3113H309.997V50.1406H306.966V48.9004H314.201V50.1406Z" fill="white"/>
</svg>
