<svg width="40" height="46" viewBox="0 0 40 46" fill="none" xmlns="http://www.w3.org/2000/svg">
<path d="M24.1726 4.982L12 1L14.2 9.8L2.386 19.645C1.95212 20.0064 1.60304 20.4588 1.36352 20.9702C1.12399 21.4815 0.999889 22.0393 1 22.604V22.604C1 23.9614 2.1814 24.9976 3.4794 24.7732L14.2 23L9.5866 38.4H32.9374L35.76 25.761C37.7686 16.7674 32.7108 7.699 24.1726 4.982V4.982ZM3.2 42.8C3.2 41.633 3.66357 40.5139 4.48873 39.6887C5.31389 38.8636 6.43305 38.4 7.6 38.4H34C35.167 38.4 36.2861 38.8636 37.1113 39.6887C37.9364 40.5139 38.4 41.633 38.4 42.8V45H3.2V42.8Z" stroke="#AD65C0" stroke-width="2" stroke-linecap="round" stroke-linejoin="round"/>
</svg>
