<svg width="18" height="22" viewBox="0 0 18 22" fill="none" xmlns="http://www.w3.org/2000/svg">
<path d="M9 12.001C10.6569 12.001 12 10.6578 12 9.00098C12 7.34412 10.6569 6.00098 9 6.00098C7.34315 6.00098 6 7.34412 6 9.00098C6 10.6578 7.34315 12.001 9 12.001Z" stroke="#2E3538" stroke-linecap="round" stroke-linejoin="round"/>
<path d="M9 1.00098C6.87827 1.00098 4.84344 1.84383 3.34315 3.34412C1.84285 4.84441 1 6.87924 1 9.00098C1 10.893 1.402 12.131 2.5 13.501L9 21.001L15.5 13.501C16.598 12.131 17 10.893 17 9.00098C17 6.87924 16.1571 4.84441 14.6569 3.34412C13.1566 1.84383 11.1217 1.00098 9 1.00098V1.00098Z" stroke="#2E3538" stroke-linecap="round" stroke-linejoin="round"/>
</svg>
