<svg width="315" height="66" viewBox="0 0 315 66" fill="none" xmlns="http://www.w3.org/2000/svg">
<path d="M39.8093 23.9685C38.2881 23.6892 36.794 23.4193 35.319 23.1699L33.7374 22.9039L34.7473 24.1377C37.1614 27.0917 39.9461 29.727 43.0226 31.9712L43.2961 32.171L43.611 32.0436C46.8441 30.7365 49.9166 29.0109 52.7411 26.9123L54.0189 25.9633L52.4262 25.8358C48.1649 25.4935 43.9179 24.7192 39.8093 23.9685ZM43.4663 30.8058C41.0195 28.9912 38.7676 26.9209 36.7503 24.6358C37.687 24.8003 38.6324 24.9726 39.5906 25.1489C43.211 25.8091 46.9395 26.4897 50.7102 26.8816C48.4297 28.4396 46.0004 29.7553 43.4663 30.8058Z" fill="black"/>
<path d="M13.2459 32.3937C17.9501 34.1665 22.9008 35.066 27.9581 35.066C32.6162 35.066 37.1924 34.3058 41.5618 32.8052L42.6154 32.4425L41.7352 31.7658C38.4662 29.2493 35.5583 26.3056 33.0933 23.0148L32.12 23.7293C34.4268 26.8092 37.1121 29.5932 40.1122 32.0176C36.1905 33.2459 32.1081 33.8675 27.9589 33.8675C23.2229 33.8675 18.5854 33.0555 14.1651 31.4542L15.6091 24.8679C16.2222 24.6208 16.8599 24.4013 17.508 24.214L17.1677 23.062C16.3717 23.2934 15.5916 23.5688 14.8474 23.8827L14.5587 24.0039L12.7592 32.2104L13.2459 32.3937Z" fill="black"/>
<path d="M58.9777 25.968C58.2612 26.0042 57.5273 26.0223 56.7751 26.0223L56.0777 26.0073L55.9036 26.1553C52.8 28.8141 49.3546 31.0041 45.6626 32.6667L44.6456 33.1239L45.5886 33.718C50.2078 36.6256 55.2634 38.6652 60.6173 39.7786L61.4578 39.9541L59.5343 25.9397L58.9777 25.968ZM47.1822 33.2852C50.5258 31.6737 53.6612 29.6357 56.519 27.2144L56.7751 27.2207C57.3547 27.2207 57.9225 27.2105 58.4815 27.1892L60.0241 38.4228C55.4845 37.3881 51.1739 35.6624 47.1822 33.2852Z" fill="black"/>
<path d="M61.1159 40.4868C55.0416 39.3112 49.3641 36.9805 44.2392 33.5599L43.9752 33.3828L43.6778 33.4977C38.2921 35.5995 32.5582 36.6295 26.7646 36.4186L26.1102 36.3958L19.5373 46.6985L28.3144 46.5647L37.2584 56.7651L36.7535 57.1814L37.9351 57.4568C42.2457 58.4601 46.7599 59.4405 50.4137 59.4405C50.6379 59.4405 50.8526 59.4342 51.0681 59.4264L51.0244 58.2279C47.524 58.3633 42.9113 57.3805 38.5084 56.3583L28.8614 45.3561L21.7582 45.4647L26.7638 37.6194C27.1614 37.6344 27.559 37.6477 27.9581 37.6477C33.4186 37.6477 38.7565 36.6657 43.8265 34.7284C48.8965 38.0648 54.4873 40.368 60.4575 41.5782L61.3743 48.2644L62.5758 48.1023L61.5413 40.5687L61.1159 40.4868Z" fill="black"/>
<path d="M24.4053 36.2911C20.5312 35.9764 16.7319 35.1446 13.1107 33.8203L12.4563 33.5795L9.54596 46.848L18.8057 46.7079L25.4016 36.3714L24.4053 36.2911ZM18.1322 45.5205L11.0544 45.6267L13.3461 35.1785C16.5617 36.2974 19.9078 37.041 23.3159 37.3951L18.1322 45.5205Z" fill="black"/>
<path d="M8.04071 53.7057L8.85655 53.6388C10.1567 53.5334 11.5259 53.4783 12.927 53.4783C20.272 53.4783 27.4985 55.0198 33.6944 56.463L35.5201 56.8887L27.6861 47.9544L9.24301 48.2353L8.04071 53.7057ZM10.2234 49.4203L27.1414 49.1622L32.1526 54.8774C26.3145 53.5538 19.6891 52.2807 12.9278 52.2807C11.7828 52.2807 10.6576 52.3161 9.57141 52.3853L10.2234 49.4203Z" fill="black"/>
<path d="M25.4931 27.4647C25.4931 27.4647 25.812 27.1562 25.8907 27.072C32.5996 19.9751 36.4013 16.4129 36.4013 10.7937C36.4013 4.83305 31.5181 -1.90735e-06 25.4931 -1.90735e-06C19.4665 -1.90735e-06 14.5842 4.83305 14.5842 10.7937C14.5842 16.4129 18.3907 19.979 25.1011 27.0767C25.1854 27.1664 25.4931 27.4647 25.4931 27.4647ZM15.7952 10.7937C15.7952 5.50347 20.1456 1.2 25.4923 1.2C30.839 1.2 35.1886 5.50426 35.1886 10.7937C35.1886 15.5308 32.0739 18.8097 26.4179 24.7625L25.4915 25.7382L24.566 24.7625C18.9107 18.8081 15.7952 15.5292 15.7952 10.7937Z" fill="black"/>
<path d="M31.1929 10.9346C31.1929 7.82478 28.6364 5.29416 25.4931 5.29416C22.3498 5.29416 19.7926 7.82478 19.7926 10.9346C19.7926 14.0451 22.3498 16.5757 25.4931 16.5757C28.6356 16.5757 31.1929 14.0451 31.1929 10.9346ZM21.0044 10.9346C21.0044 8.48498 23.0178 6.4918 25.4931 6.4918C27.9677 6.4918 29.981 8.48419 29.981 10.9346C29.981 13.3849 27.9677 15.3773 25.4931 15.3773C23.0178 15.3773 21.0044 13.3841 21.0044 10.9346Z" fill="black"/>
<path d="M65.8526 18.5894L62.6091 19.0851C60.9759 19.3314 59.2949 19.4534 57.47 19.4534C52.3109 19.4534 46.8696 18.4572 41.6072 17.4956L41.4648 17.4696C40.1369 17.2273 38.7978 16.9849 37.4548 16.7551L37.2481 17.9363C38.5879 18.1652 39.9214 18.4084 41.2446 18.6492L41.3869 18.6744C46.7034 19.6462 52.1996 20.6518 57.47 20.6518C59.3569 20.6518 61.0983 20.5275 62.7928 20.271L64.8181 19.9617L69.3434 52.9267L54.267 64.5883L53.7096 64.656C52.8827 64.752 51.9984 64.8024 51.08 64.8024C46.371 64.8024 40.9496 63.5237 35.1552 62.1576C28.498 60.5878 20.9527 58.8087 13.4057 58.8087C10.2911 58.8087 7.42607 59.099 4.64696 59.6986L1.58318 60.3573L10.3666 20.33L11.1928 19.8956C12.0699 19.4306 12.993 19.0151 14.0164 18.6248L13.5807 17.5066C12.5104 17.915 11.5427 18.351 10.6227 18.8365L9.30108 19.5313L0 61.9239L4.9046 60.8687C7.59863 60.2896 10.3793 60.0055 13.4057 60.0055C20.8095 60.0055 28.2817 61.7681 34.9286 63.3364C40.7396 64.7064 46.2279 66 51.08 66C52.0445 66 52.9781 65.9481 53.8536 65.8458L54.7481 65.7372L70.6388 53.4468L65.8526 18.5894Z" fill="black"/>
<path d="M52.0447 62.4614L53.1317 62.9917L58.6144 51.984L66.6201 51.1648L66.4961 49.9719L57.824 50.8595L52.0447 62.4614Z" fill="black"/>
<path d="M102.541 40.1433C93.7687 40.1433 87.3096 34.1475 87.3096 24.7577C87.3096 15.2435 93.9155 9.2272 102.857 9.2272C108.727 9.2272 113.586 11.7879 116.237 16.3056L110.704 19.2202C109.105 16.1391 106.244 14.661 102.857 14.661C97.5977 14.661 93.6425 18.2418 93.6425 24.6123C93.6425 30.7539 97.3452 34.7095 103.089 34.7095C106.981 34.7095 110.557 32.7942 111.42 28.4014H103.11V23.3841H117.395V39.7268H112.43V35.563C110.473 38.4152 107.191 40.1432 102.542 40.1432L102.541 40.1433ZM142.293 40.1433C133.352 40.1433 126.745 34.1058 126.745 24.6746C126.745 15.2228 133.351 9.2272 142.293 9.2272C151.213 9.2272 157.819 15.223 157.819 24.6746C157.819 34.1056 151.213 40.1433 142.293 40.1433ZM142.293 34.4181C147.531 34.4181 151.55 30.7747 151.55 24.6749C151.55 18.5958 147.531 14.9732 142.293 14.9732C137.054 14.9732 133.036 18.5957 133.036 24.6749C133.036 30.7748 137.054 34.4181 142.293 34.4181ZM184.601 39.7269V9.6433H195.604C205.302 9.6433 210.099 15.6808 210.099 24.675C210.099 33.6895 205.302 39.7269 195.604 39.7269H184.601ZM190.912 34.2099H195.288C200.884 34.2099 203.451 30.7539 203.451 24.6749C203.451 18.5958 200.884 15.1398 195.288 15.1398H190.912V34.2103V34.2099ZM234.366 40.1433C225.424 40.1433 218.818 34.1058 218.818 24.6746C218.818 15.2228 225.424 9.2272 234.366 9.2272C243.286 9.2272 249.892 15.223 249.892 24.6746C249.892 34.1056 243.286 40.1433 234.366 40.1433ZM234.366 34.4181C239.604 34.4181 243.622 30.7747 243.622 24.6749C243.622 18.5958 239.604 14.9732 234.366 14.9732C229.127 14.9732 225.109 18.5957 225.109 24.6749C225.109 30.7748 229.127 34.4181 234.366 34.4181ZM276.673 39.7269V9.6433H282.985V39.7269H276.673ZM313.354 9.6433V15.1395H306.138V39.7262H299.889V15.1395H292.631V9.6433H313.353H313.354Z" fill="black"/>
<path d="M89.3991 53.9403V56.0825H94.64V57.3114H88.1572V48.9005H94.1387V50.1407H89.3991V52.6888C89.6346 52.5535 89.8966 52.4633 90.1852 52.4182C90.3979 52.3806 90.6714 52.3618 91.0056 52.3618H92.8627V53.6133H91.0056C90.6941 53.6133 90.4207 53.6321 90.1852 53.6697C89.8966 53.7223 89.6346 53.8125 89.3991 53.9403ZM96.8845 50.0843L95.8933 48.9005H97.4998L102.957 55.3271V48.9005H104.21V57.3114H102.98L98.1036 51.5275V57.3114H96.8845V50.0843ZM113.04 50.1407H110.044V57.3114H108.836V50.1407H105.806V48.9005H113.04V50.1407ZM115.877 53.9403V56.0825H121.118V57.3114H114.635V48.9005H120.617V50.1407H115.877V52.6888C116.113 52.5535 116.375 52.4633 116.663 52.4182C116.876 52.3806 117.15 52.3618 117.484 52.3618H119.341V53.6133H117.484C117.172 53.6133 116.899 53.6321 116.663 53.6697C116.375 53.7223 116.113 53.8125 115.877 53.9403ZM124.354 50.1294V52.9256C124.589 52.7903 124.851 52.7001 125.14 52.655C125.353 52.6174 125.626 52.5986 125.96 52.5986H127.578C128.026 52.5986 128.376 52.4971 128.626 52.2942C128.892 52.0762 129.025 51.7492 129.025 51.3133C129.025 50.8999 128.885 50.5917 128.604 50.3888C128.361 50.2159 128.019 50.1294 127.578 50.1294H124.354ZM127.988 55.981L126.952 53.8275H125.96C125.649 53.8275 125.376 53.8463 125.14 53.8839C124.851 53.9365 124.589 54.0267 124.354 54.1545V57.3114H123.112V48.9005H127.578C128.102 48.9005 128.566 48.9982 128.968 49.1936C129.371 49.3891 129.682 49.6672 129.902 50.028C130.138 50.4113 130.256 50.8623 130.256 51.3809C130.256 52.0123 130.085 52.5309 129.743 52.9368C129.401 53.3427 128.919 53.6246 128.296 53.7824L128.957 55.1241C129.147 55.4022 129.295 55.5977 129.401 55.7104C129.53 55.8532 129.654 55.949 129.771 55.9979C129.889 56.0468 130.043 56.0712 130.233 56.0712H130.358L130.632 56.0599V57.3114C130.191 57.3114 129.864 57.2964 129.652 57.2663C129.295 57.2062 128.991 57.0897 128.74 56.9168C128.444 56.7063 128.193 56.3944 127.988 55.981ZM135.542 52.4971H137.046C137.882 52.4971 138.299 52.0987 138.299 51.302C138.299 50.8886 138.195 50.5898 137.986 50.4057C137.777 50.2215 137.464 50.1294 137.046 50.1294H133.924V52.8354C134.16 52.7001 134.426 52.6061 134.722 52.5535C134.942 52.5159 135.216 52.4971 135.542 52.4971ZM133.924 57.3114H132.682V48.9005H137.046C137.547 48.9005 137.984 48.9963 138.356 49.188C138.729 49.3797 139.017 49.6559 139.222 50.0167C139.427 50.3775 139.53 50.804 139.53 51.2964C139.53 51.7887 139.427 52.219 139.222 52.5873C139.017 52.9556 138.727 53.2394 138.351 53.4386C137.975 53.6377 137.54 53.7373 137.046 53.7373H135.542C134.889 53.7373 134.35 53.8501 133.924 54.0756V57.3114ZM142.595 50.1294V52.9256C142.83 52.7903 143.092 52.7001 143.381 52.655C143.593 52.6174 143.867 52.5986 144.201 52.5986H145.819C146.267 52.5986 146.617 52.4971 146.867 52.2942C147.133 52.0762 147.266 51.7492 147.266 51.3133C147.266 50.8999 147.125 50.5917 146.844 50.3888C146.601 50.2159 146.26 50.1294 145.819 50.1294H142.595ZM146.229 55.981L145.192 53.8275H144.201C143.89 53.8275 143.616 53.8463 143.381 53.8839C143.092 53.9365 142.83 54.0267 142.595 54.1545V57.3114H141.353V48.9005H145.819C146.343 48.9005 146.806 48.9982 147.209 49.1936C147.612 49.3891 147.923 49.6672 148.143 50.028C148.379 50.4113 148.496 50.8623 148.496 51.3809C148.496 52.0123 148.326 52.5309 147.984 52.9368C147.642 53.3427 147.16 53.6246 146.537 53.7824L147.198 55.1241C147.387 55.4022 147.536 55.5977 147.642 55.7104C147.771 55.8532 147.894 55.949 148.012 55.9979C148.13 56.0468 148.284 56.0712 148.474 56.0712H148.599L148.872 56.0599V57.3114C148.432 57.3114 148.105 57.2964 147.893 57.2663C147.536 57.2062 147.232 57.0897 146.981 56.9168C146.685 56.7063 146.434 56.3944 146.229 55.981ZM152.142 57.3114H150.923V48.9005H152.142V57.3114ZM161.257 54.7521C161.257 55.3008 161.09 55.7893 160.756 56.2178C160.429 56.6236 159.979 56.9393 159.406 57.1648C158.832 57.3903 158.185 57.5031 157.463 57.5031C156.802 57.5031 156.16 57.3509 155.537 57.0464C154.915 56.742 154.391 56.3192 153.965 55.778L154.854 54.955C155.591 55.8344 156.46 56.2741 157.463 56.2741C157.904 56.2741 158.306 56.2215 158.671 56.1163C159.073 55.996 159.385 55.8269 159.605 55.6089C159.856 55.3684 159.981 55.0828 159.981 54.7521C159.981 54.3537 159.856 54.053 159.605 53.8501C159.392 53.6772 159.077 53.5645 158.659 53.5118C158.416 53.4818 158.017 53.4667 157.463 53.4667C156.445 53.4667 155.669 53.2826 155.133 52.9143C154.598 52.546 154.33 52.0048 154.33 51.2907C154.33 50.8397 154.465 50.4113 154.734 50.0054C155.004 49.5995 155.374 49.2763 155.845 49.0358C156.331 48.7802 156.871 48.6525 157.463 48.6525C158.131 48.6525 158.735 48.7539 159.275 48.9569C159.852 49.1749 160.387 49.5168 160.881 49.9829L160.106 50.8848C159.643 50.5165 159.221 50.2591 158.842 50.1125C158.462 49.966 158.002 49.8927 157.463 49.8927C157.152 49.8927 156.861 49.9566 156.591 50.0843C156.322 50.2121 156.107 50.3831 155.948 50.5973C155.788 50.8116 155.708 51.0389 155.708 51.2795C155.708 51.9259 156.312 52.2491 157.52 52.2491C158.485 52.2491 159.248 52.3468 159.81 52.5422C160.342 52.7301 160.721 53.0158 160.949 53.3991C161.154 53.7373 161.257 54.1883 161.257 54.7521ZM164.322 53.9403V56.0825H169.563V57.3114H163.08V48.9005H169.061V50.1407H164.322V52.6888C164.557 52.5535 164.819 52.4633 165.108 52.4182C165.321 52.3806 165.594 52.3618 165.928 52.3618H167.785V53.6133H165.928C165.617 53.6133 165.343 53.6321 165.108 53.6697C164.819 53.7223 164.557 53.8125 164.322 53.9403ZM177.299 49.7912L176.832 48.7539H178.199L182.289 57.3114H180.899L180.341 56.0825H177.755C177.268 56.0825 176.832 56.1276 176.444 56.2178C176.102 56.3004 175.818 56.4094 175.59 56.5447C175.385 56.665 175.248 56.789 175.18 56.9168L174.963 57.3114H173.619L177.299 49.7912ZM178.21 54.8422H179.783L177.925 51.2907L176.046 55.3158C176.213 55.173 176.467 55.0602 176.809 54.9775C177.196 54.8873 177.663 54.8422 178.21 54.8422ZM190.492 54.7521C190.492 55.3008 190.325 55.7893 189.991 56.2178C189.664 56.6236 189.214 56.9393 188.641 57.1648C188.067 57.3903 187.42 57.5031 186.698 57.5031C186.037 57.5031 185.396 57.3509 184.773 57.0464C184.15 56.742 183.626 56.3192 183.201 55.778L184.089 54.955C184.826 55.8344 185.696 56.2741 186.698 56.2741C187.139 56.2741 187.541 56.2215 187.906 56.1163C188.309 55.996 188.62 55.8269 188.84 55.6089C189.091 55.3684 189.216 55.0828 189.216 54.7521C189.216 54.3537 189.091 54.053 188.84 53.8501C188.628 53.6772 188.312 53.5645 187.895 53.5118C187.652 53.4818 187.253 53.4667 186.698 53.4667C185.68 53.4667 184.904 53.2826 184.368 52.9143C183.833 52.546 183.565 52.0048 183.565 51.2907C183.565 50.8397 183.7 50.4113 183.97 50.0054C184.239 49.5995 184.61 49.2763 185.08 49.0358C185.567 48.7802 186.106 48.6525 186.698 48.6525C187.367 48.6525 187.971 48.7539 188.51 48.9569C189.087 49.1749 189.623 49.5168 190.116 49.9829L189.342 50.8848C188.878 50.5165 188.457 50.2591 188.077 50.1125C187.697 49.966 187.238 49.8927 186.698 49.8927C186.387 49.8927 186.096 49.9566 185.827 50.0843C185.557 50.2121 185.342 50.3831 185.183 50.5973C185.023 50.8116 184.944 51.0389 184.944 51.2795C184.944 51.9259 185.548 52.2491 186.755 52.2491C187.72 52.2491 188.483 52.3468 189.045 52.5422C189.577 52.7301 189.957 53.0158 190.185 53.3991C190.39 53.7373 190.492 54.1883 190.492 54.7521ZM198.923 54.7521C198.923 55.3008 198.756 55.7893 198.422 56.2178C198.095 56.6236 197.645 56.9393 197.072 57.1648C196.498 57.3903 195.851 57.5031 195.129 57.5031C194.469 57.5031 193.827 57.3509 193.204 57.0464C192.581 56.742 192.057 56.3192 191.632 55.778L192.52 54.955C193.257 55.8344 194.127 56.2741 195.129 56.2741C195.57 56.2741 195.972 56.2215 196.337 56.1163C196.74 55.996 197.051 55.8269 197.271 55.6089C197.522 55.3684 197.647 55.0828 197.647 54.7521C197.647 54.3537 197.522 54.053 197.271 53.8501C197.059 53.6772 196.743 53.5645 196.326 53.5118C196.083 53.4818 195.684 53.4667 195.129 53.4667C194.112 53.4667 193.335 53.2826 192.799 52.9143C192.264 52.546 191.996 52.0048 191.996 51.2907C191.996 50.8397 192.131 50.4113 192.401 50.0054C192.67 49.5995 193.041 49.2763 193.512 49.0358C193.998 48.7802 194.537 48.6525 195.129 48.6525C195.798 48.6525 196.402 48.7539 196.941 48.9569C197.518 49.1749 198.054 49.5168 198.547 49.9829L197.773 50.8848C197.309 50.5165 196.888 50.2591 196.508 50.1125C196.128 49.966 195.669 49.8927 195.129 49.8927C194.818 49.8927 194.527 49.9566 194.258 50.0843C193.988 50.2121 193.774 50.3831 193.614 50.5973C193.455 50.8116 193.375 51.0389 193.375 51.2795C193.375 51.9259 193.979 52.2491 195.186 52.2491C196.151 52.2491 196.914 52.3468 197.476 52.5422C198.008 52.7301 198.388 53.0158 198.616 53.3991C198.821 53.7373 198.923 54.1883 198.923 54.7521ZM201.988 53.9403V56.0825H207.229V57.3114H200.746V48.9005H206.728V50.1407H201.988V52.6888C202.224 52.5535 202.486 52.4633 202.774 52.4182C202.987 52.3806 203.26 52.3618 203.595 52.3618H205.452V53.6133H203.595C203.283 53.6133 203.01 53.6321 202.774 53.6697C202.486 53.7223 202.224 53.8125 201.988 53.9403ZM215.546 50.1407H212.55V57.3114H211.342V50.1407H208.311V48.9005H215.546V50.1407ZM227.486 51.5275L224.581 54.9663L221.699 51.5275V57.3114H220.48V50.0843L219.488 48.9005H221.095L224.57 53.027L228.09 48.9005H229.697L228.706 50.0843V57.3114H227.486V51.5275ZM234.117 49.7912L233.65 48.7539H235.017L239.108 57.3114H237.718L237.159 56.0825H234.573C234.087 56.0825 233.65 56.1276 233.263 56.2178C232.921 56.3004 232.636 56.4094 232.408 56.5447C232.203 56.665 232.067 56.789 231.998 56.9168L231.782 57.3114H230.437L234.117 49.7912ZM235.029 54.8422H236.601L234.744 51.2907L232.864 55.3158C233.031 55.173 233.286 55.0602 233.628 54.9775C234.015 54.8873 234.482 54.8422 235.029 54.8422ZM240.953 50.0843L239.962 48.9005H241.569L247.026 55.3271V48.9005H248.279V57.3114H247.049L242.173 51.5275V57.3114H240.953V50.0843ZM253.441 49.7912L252.973 48.7539H254.341L258.431 57.3114H257.041L256.483 56.0825H253.896C253.41 56.0825 252.973 56.1276 252.586 56.2178C252.244 56.3004 251.959 56.4094 251.732 56.5447C251.526 56.665 251.39 56.789 251.321 56.9168L251.105 57.3114H249.76L253.441 49.7912ZM254.352 54.8422H255.924L254.067 51.2907L252.187 55.3158C252.354 55.173 252.609 55.0602 252.951 54.9775C253.338 54.8873 253.805 54.8422 254.352 54.8422ZM267.306 49.9829L266.509 50.9074C266.197 50.5917 265.825 50.3437 265.392 50.1633C264.959 49.9829 264.503 49.8927 264.025 49.8927C263.402 49.8927 262.834 50.0317 262.322 50.3098C261.809 50.5879 261.408 50.9675 261.12 51.4486C260.823 51.9522 260.675 52.5122 260.675 53.1285C260.675 53.7148 260.835 54.256 261.154 54.7521C261.458 55.2181 261.866 55.5883 262.379 55.8626C262.891 56.137 263.444 56.2741 264.036 56.2741C264.454 56.2741 264.855 56.2027 265.238 56.0599C265.622 55.9171 265.966 55.7179 266.269 55.4624V53.929H265.176L264.64 52.7113H267.5V55.981C267.067 56.462 266.549 56.836 265.945 57.1028C265.341 57.3697 264.701 57.5031 264.025 57.5031C263.182 57.5031 262.407 57.3001 261.701 56.8942C261.01 56.5034 260.466 55.966 260.071 55.282C259.661 54.5829 259.456 53.8163 259.456 52.9819C259.456 52.1777 259.673 51.4373 260.106 50.7608C260.516 50.1144 261.072 49.6014 261.775 49.2218C262.477 48.8422 263.231 48.6525 264.036 48.6525C264.667 48.6525 265.267 48.7727 265.837 49.0132C266.391 49.2387 266.881 49.5619 267.306 49.9829ZM270.85 53.9403V56.0825H276.091V57.3114H269.608V48.9005H275.589V50.1407H270.85V52.6888C271.085 52.5535 271.347 52.4633 271.636 52.4182C271.848 52.3806 272.122 52.3618 272.456 52.3618H274.313V53.6133H272.456C272.145 53.6133 271.871 53.6321 271.636 53.6697C271.347 53.7223 271.085 53.8125 270.85 53.9403ZM285.342 51.5275L282.437 54.9663L279.554 51.5275V57.3114H278.335V50.0843L277.344 48.9005H278.95L282.425 53.027L285.946 48.9005H287.552L286.561 50.0843V57.3114H285.342V51.5275ZM290.56 53.9403V56.0825H295.801V57.3114H289.318V48.9005H295.3V50.1407H290.56V52.6888C290.796 52.5535 291.058 52.4633 291.346 52.4182C291.559 52.3806 291.832 52.3618 292.167 52.3618H294.024V53.6133H292.167C291.855 53.6133 291.582 53.6321 291.346 53.6697C291.058 53.7223 290.796 53.8125 290.56 53.9403ZM298.046 50.0843L297.054 48.9005H298.661L304.118 55.3271V48.9005H305.371V57.3114H304.141L299.265 51.5275V57.3114H298.046V50.0843ZM314.201 50.1407H311.205V57.3114H309.997V50.1407H306.966V48.9005H314.201V50.1407Z" fill="black"/>
</svg>
