<svg width="55" height="43" viewBox="0 0 55 43" fill="none" xmlns="http://www.w3.org/2000/svg">
<path d="M30.8 42.7H51.8V21.7H42.42C43.0733 18.9933 44.4267 16.66 46.48 14.7C48.6267 12.6467 51.3333 11.2467 54.6 10.5V0C46.76 1.58667 40.8333 5.04 36.82 10.36C32.8067 15.5867 30.8 22.3067 30.8 30.52V42.7ZM0 42.7H21V21.7H11.62C12.2733 18.9933 13.6267 16.66 15.68 14.7C17.8267 12.6467 20.5333 11.2467 23.8 10.5V0C15.96 1.58667 10.0333 5.04 6.02 10.36C2.00666 15.5867 0 22.3067 0 30.52V42.7Z" fill="white"/>
</svg>
